<svg width="128" height="128" viewBox="0 0 128 128" fill="none" xmlns="http://www.w3.org/2000/svg">
<rect width="128" height="128" fill="#E5E5E5"/>
<rect width="128" height="128" fill="#011627"/>
<path d="M40.312 42C39.64 40.068 38.926 37.884 38.17 35.448C37.414 33.012 36.7 30.59 36.028 28.182C35.356 25.746 34.754 23.45 34.222 21.294C33.69 19.138 33.298 17.374 33.046 16.002H38.506C38.674 17.346 38.926 18.914 39.262 20.706C39.598 22.47 39.962 24.304 40.354 26.208C40.774 28.084 41.208 29.946 41.656 31.794C42.132 33.614 42.594 35.252 43.042 36.708C43.49 35.28 43.938 33.656 44.386 31.836C44.834 29.988 45.254 28.126 45.646 26.25C46.038 24.346 46.402 22.498 46.738 20.706C47.074 18.914 47.354 17.346 47.578 16.002H52.996C52.66 17.682 52.24 19.558 51.736 21.63C51.26 23.702 50.7 25.886 50.056 28.182C49.44 30.45 48.754 32.774 47.998 35.154C47.242 37.506 46.458 39.788 45.646 42H40.312ZM56.146 42V16.002H71.896V20.286H61.312V26.124H70.51V30.408H61.312V37.716H72.82V42H56.146ZM87.604 19.908C86.372 19.908 85.336 20.132 84.496 20.58C83.656 21.028 82.956 21.658 82.396 22.47C81.864 23.254 81.472 24.206 81.22 25.326C80.996 26.418 80.884 27.636 80.884 28.98C80.884 32.088 81.374 34.384 82.354 35.868C83.334 37.324 84.776 38.052 86.68 38.052C86.988 38.052 87.324 38.038 87.688 38.01C88.052 37.982 88.388 37.94 88.696 37.884V28.392H93.862V41.37C93.246 41.594 92.28 41.846 90.964 42.126C89.676 42.406 88.108 42.546 86.26 42.546C84.636 42.546 83.166 42.266 81.85 41.706C80.562 41.118 79.456 40.264 78.532 39.144C77.608 37.996 76.894 36.582 76.39 34.902C75.886 33.194 75.634 31.22 75.634 28.98C75.634 26.768 75.928 24.822 76.516 23.142C77.104 21.434 77.902 20.006 78.91 18.858C79.918 17.71 81.108 16.856 82.48 16.296C83.852 15.708 85.322 15.414 86.89 15.414C87.898 15.414 88.794 15.498 89.578 15.666C90.39 15.806 91.09 15.974 91.678 16.17C92.266 16.366 92.742 16.576 93.106 16.8C93.498 17.024 93.792 17.192 93.988 17.304L92.644 21.42C92.028 21.028 91.272 20.678 90.376 20.37C89.48 20.062 88.556 19.908 87.604 19.908Z" fill="#FFEB95"/>
<path d="M51.61 52.002V78H46.444V66.534H39.556V78H34.39V52.002H39.556V62.25H46.444V52.002H51.61ZM68.578 78L67.36 71.994H60.43L59.254 78H53.878C55.11 72.876 56.356 68.214 57.616 64.014C58.876 59.786 60.094 55.782 61.27 52.002H66.898C68.13 55.81 69.348 59.856 70.552 64.14C71.784 68.396 72.974 73.016 74.122 78H68.578ZM63.958 57.042C63.678 58.022 63.412 58.96 63.16 59.856C62.936 60.724 62.712 61.592 62.488 62.46C62.292 63.3 62.096 64.154 61.9 65.022C61.732 65.89 61.564 66.786 61.396 67.71H66.478C66.31 66.786 66.142 65.89 65.974 65.022C65.806 64.154 65.61 63.3 65.386 62.46C65.19 61.592 64.966 60.724 64.714 59.856C64.49 58.96 64.238 58.022 63.958 57.042ZM86.932 78.546C83.264 78.546 80.464 77.37 78.532 75.018C76.6 72.666 75.634 69.32 75.634 64.98C75.634 62.824 75.928 60.906 76.516 59.226C77.104 57.546 77.916 56.132 78.952 54.984C80.016 53.808 81.262 52.926 82.69 52.338C84.146 51.722 85.728 51.414 87.436 51.414C88.36 51.414 89.186 51.498 89.914 51.666C90.67 51.806 91.328 51.974 91.888 52.17C92.448 52.366 92.91 52.576 93.274 52.8C93.666 53.024 93.96 53.192 94.156 53.304L92.812 57.42C92.168 57 91.384 56.65 90.46 56.37C89.564 56.062 88.528 55.908 87.352 55.908C86.54 55.908 85.742 56.062 84.958 56.37C84.202 56.65 83.516 57.14 82.9 57.84C82.312 58.512 81.822 59.422 81.43 60.57C81.066 61.718 80.884 63.146 80.884 64.854C80.884 67.822 81.388 70.104 82.396 71.7C83.432 73.268 85.112 74.052 87.436 74.052C88.78 74.052 89.886 73.898 90.754 73.59C91.65 73.282 92.364 72.974 92.896 72.666L94.198 76.74C93.47 77.188 92.476 77.608 91.216 78C89.984 78.364 88.556 78.546 86.932 78.546Z" fill="#ADDB67"/>
<path d="M47.2 114C46.892 113.02 46.444 111.97 45.856 110.85C45.296 109.702 44.666 108.596 43.966 107.532C43.266 106.44 42.524 105.432 41.74 104.508C40.984 103.556 40.256 102.758 39.556 102.114V114H34.39V88.002H39.556V98.796C40.172 98.012 40.816 97.144 41.488 96.192C42.16 95.24 42.79 94.288 43.378 93.336C43.994 92.384 44.554 91.446 45.058 90.522C45.562 89.598 45.982 88.758 46.318 88.002H52.156C51.764 88.758 51.288 89.626 50.728 90.606C50.196 91.558 49.58 92.566 48.88 93.63C48.18 94.666 47.424 95.73 46.612 96.822C45.828 97.914 45.002 98.964 44.134 99.972C45.002 100.812 45.884 101.778 46.78 102.87C47.676 103.962 48.516 105.138 49.3 106.398C50.112 107.63 50.84 108.904 51.484 110.22C52.128 111.508 52.646 112.768 53.038 114H47.2ZM56.146 114V88.002H71.896V92.286H61.312V98.124H70.51V102.408H61.312V109.716H72.82V114H56.146ZM83.488 87.708C84.972 87.708 86.316 87.876 87.52 88.212C88.724 88.548 89.76 89.066 90.628 89.766C91.496 90.466 92.154 91.362 92.602 92.454C93.078 93.518 93.316 94.778 93.316 96.234C93.316 97.746 93.008 99.118 92.392 100.35C91.776 101.582 90.754 102.52 89.326 103.164C89.802 103.892 90.306 104.704 90.838 105.6C91.37 106.468 91.888 107.392 92.392 108.372C92.896 109.324 93.372 110.29 93.82 111.27C94.296 112.222 94.702 113.132 95.038 114H89.62C88.976 112.32 88.22 110.71 87.352 109.17C86.512 107.602 85.602 106.02 84.622 104.424H81.934V114H76.768V88.38C77.272 88.268 77.818 88.17 78.406 88.086C79.022 87.974 79.638 87.904 80.254 87.876C80.87 87.82 81.458 87.778 82.018 87.75C82.578 87.722 83.068 87.708 83.488 87.708ZM88.066 96.192C88.066 94.82 87.646 93.812 86.806 93.168C85.966 92.524 84.86 92.202 83.488 92.202C83.292 92.202 83.054 92.216 82.774 92.244C82.494 92.244 82.214 92.272 81.934 92.328V100.14H83.068C84.832 100.14 86.106 99.804 86.89 99.132C87.674 98.432 88.066 97.452 88.066 96.192Z" fill="#22DA6E"/>
</svg>
